<svg width="360" height="250" viewBox="0 0 360 250" fill="none" xmlns="http://www.w3.org/2000/svg">
<g clip-path="url(#clip0)">
<rect width="360" height="250" rx="4" fill="white"/>
<rect width="100" height="250" fill="#4A154B"/>
<rect x="116" y="202" width="268" height="32" rx="6" fill="white"/>
<rect x="120" y="206" width="24" height="24" rx="4" fill="#1264A3"/>
<path d="M128.344 225.6C128.72 225.6 129.176 225.472 129.64 225.024L136.832 218.224C137.36 217.72 137.64 217.216 137.64 216.792C137.64 216.096 136.976 215.6 135.808 215.6H134.12L136.976 211.2H129.744L126.328 217.952C126.184 218.232 126.12 218.512 126.12 218.776C126.12 219.664 126.824 220.4 127.848 220.4H129.12L127.456 223.464C127.312 223.816 127.24 224.136 127.24 224.408C127.24 225.152 127.712 225.6 128.344 225.6ZM128.536 224.312C128.424 224.312 128.48 224.12 128.56 223.936L130.92 219.2H127.848C127.52 219.2 127.328 219.024 127.328 218.776C127.328 218.688 127.344 218.592 127.4 218.488L130.488 212.4H134.744L132.008 216.8H135.808C136.08 216.8 136.216 216.888 136.216 217.016C136.216 217.104 136.152 217.208 136.024 217.336L128.84 224.136C128.712 224.264 128.6 224.312 128.536 224.312Z" fill="white"/>
<rect x="115.5" y="201.5" width="269" height="33" rx="6.5" stroke="#1D1C1D" stroke-opacity="0.13"/>
<g filter="url(#filter0_d)">
<rect x="80" y="94" width="248" height="100" rx="6" fill="white"/>
<rect x="92" y="107" width="18" height="18" rx="3" fill="#E6C651"/>
<path d="M125.975 118.783C126.07 118.783 126.155 118.82 126.229 118.894L126.918 119.641C126.536 120.114 126.066 120.476 125.507 120.727C124.952 120.978 124.285 121.104 123.505 121.104C122.807 121.104 122.179 120.985 121.62 120.746C121.065 120.508 120.591 120.177 120.197 119.752C119.802 119.327 119.499 118.82 119.287 118.231C119.079 117.642 118.975 116.998 118.975 116.3C118.975 115.594 119.087 114.948 119.313 114.363C119.538 113.774 119.854 113.267 120.262 112.842C120.673 112.418 121.163 112.088 121.731 111.854C122.298 111.616 122.927 111.497 123.616 111.497C124.3 111.497 124.907 111.61 125.436 111.835C125.969 112.06 126.421 112.355 126.794 112.719L126.209 113.531C126.174 113.583 126.129 113.629 126.073 113.668C126.021 113.707 125.947 113.726 125.852 113.726C125.787 113.726 125.719 113.709 125.65 113.674C125.581 113.635 125.505 113.59 125.423 113.538C125.34 113.482 125.245 113.421 125.137 113.356C125.028 113.291 124.903 113.232 124.76 113.18C124.617 113.124 124.45 113.079 124.259 113.044C124.073 113.005 123.856 112.985 123.609 112.985C123.189 112.985 122.803 113.061 122.452 113.213C122.105 113.36 121.806 113.577 121.555 113.863C121.304 114.145 121.109 114.491 120.97 114.903C120.831 115.31 120.762 115.776 120.762 116.3C120.762 116.829 120.836 117.299 120.983 117.711C121.135 118.123 121.338 118.469 121.594 118.751C121.85 119.033 122.151 119.249 122.498 119.401C122.844 119.548 123.217 119.622 123.616 119.622C123.854 119.622 124.068 119.609 124.259 119.583C124.454 119.557 124.632 119.516 124.792 119.459C124.957 119.403 125.111 119.332 125.254 119.245C125.401 119.154 125.546 119.043 125.689 118.913C125.732 118.874 125.778 118.844 125.826 118.822C125.873 118.796 125.923 118.783 125.975 118.783ZM129.351 115.488C129.559 115.089 129.806 114.777 130.092 114.552C130.378 114.322 130.716 114.207 131.106 114.207C131.414 114.207 131.661 114.275 131.847 114.409L131.743 115.611C131.721 115.689 131.689 115.746 131.645 115.78C131.606 115.811 131.552 115.826 131.483 115.826C131.418 115.826 131.32 115.815 131.19 115.793C131.065 115.772 130.941 115.761 130.82 115.761C130.642 115.761 130.484 115.787 130.345 115.839C130.207 115.891 130.081 115.967 129.968 116.066C129.86 116.162 129.763 116.279 129.676 116.417C129.594 116.556 129.516 116.714 129.442 116.892V121H127.836V114.331H128.779C128.944 114.331 129.058 114.361 129.123 114.422C129.188 114.478 129.232 114.582 129.253 114.734L129.351 115.488ZM136.792 116.898C136.792 116.69 136.762 116.495 136.701 116.313C136.645 116.127 136.558 115.965 136.441 115.826C136.324 115.687 136.175 115.579 135.993 115.501C135.815 115.419 135.607 115.377 135.369 115.377C134.905 115.377 134.539 115.51 134.27 115.774C134.006 116.038 133.837 116.413 133.763 116.898H136.792ZM133.731 117.867C133.757 118.209 133.817 118.506 133.913 118.757C134.008 119.004 134.134 119.21 134.29 119.375C134.446 119.535 134.63 119.657 134.842 119.739C135.059 119.817 135.297 119.856 135.557 119.856C135.817 119.856 136.04 119.826 136.227 119.765C136.417 119.704 136.582 119.637 136.721 119.563C136.864 119.49 136.987 119.423 137.091 119.362C137.199 119.301 137.303 119.271 137.403 119.271C137.537 119.271 137.637 119.321 137.702 119.42L138.164 120.005C137.986 120.213 137.787 120.389 137.566 120.532C137.345 120.671 137.113 120.783 136.87 120.87C136.632 120.952 136.387 121.011 136.136 121.046C135.889 121.08 135.648 121.098 135.414 121.098C134.95 121.098 134.519 121.022 134.121 120.87C133.722 120.714 133.375 120.486 133.081 120.188C132.786 119.884 132.554 119.511 132.385 119.069C132.216 118.623 132.132 118.107 132.132 117.522C132.132 117.067 132.205 116.641 132.353 116.242C132.5 115.839 132.71 115.49 132.983 115.195C133.26 114.896 133.596 114.66 133.991 114.487C134.389 114.314 134.838 114.227 135.336 114.227C135.756 114.227 136.144 114.294 136.5 114.428C136.855 114.563 137.16 114.76 137.416 115.02C137.672 115.276 137.871 115.592 138.014 115.969C138.161 116.342 138.235 116.768 138.235 117.249C138.235 117.492 138.209 117.657 138.157 117.743C138.105 117.826 138.005 117.867 137.858 117.867H133.731ZM142.963 118.153C142.499 118.175 142.109 118.216 141.793 118.276C141.477 118.333 141.223 118.406 141.032 118.497C140.842 118.588 140.705 118.695 140.623 118.816C140.541 118.937 140.499 119.069 140.499 119.212C140.499 119.494 140.582 119.696 140.746 119.817C140.915 119.938 141.134 119.999 141.403 119.999C141.732 119.999 142.016 119.94 142.254 119.823C142.497 119.702 142.733 119.52 142.963 119.277V118.153ZM139.284 115.26C140.051 114.558 140.974 114.207 142.053 114.207C142.443 114.207 142.792 114.272 143.099 114.402C143.407 114.528 143.667 114.706 143.879 114.935C144.092 115.161 144.252 115.432 144.36 115.748C144.473 116.064 144.529 116.411 144.529 116.788V121H143.801C143.65 121 143.533 120.978 143.45 120.935C143.368 120.887 143.303 120.794 143.255 120.655L143.112 120.174C142.943 120.326 142.779 120.46 142.618 120.577C142.458 120.69 142.291 120.785 142.118 120.863C141.945 120.941 141.758 121 141.559 121.039C141.364 121.082 141.147 121.104 140.909 121.104C140.627 121.104 140.367 121.067 140.129 120.993C139.891 120.915 139.685 120.801 139.511 120.649C139.338 120.497 139.204 120.309 139.108 120.083C139.013 119.858 138.965 119.596 138.965 119.297C138.965 119.128 138.994 118.961 139.05 118.796C139.106 118.627 139.197 118.467 139.323 118.315C139.453 118.164 139.62 118.021 139.823 117.886C140.027 117.752 140.276 117.635 140.571 117.535C140.87 117.436 141.217 117.356 141.611 117.295C142.005 117.23 142.456 117.191 142.963 117.178V116.788C142.963 116.342 142.868 116.012 142.677 115.8C142.486 115.583 142.211 115.475 141.851 115.475C141.591 115.475 141.375 115.505 141.201 115.566C141.032 115.627 140.883 115.696 140.753 115.774C140.623 115.848 140.504 115.915 140.395 115.975C140.291 116.036 140.174 116.066 140.044 116.066C139.932 116.066 139.836 116.038 139.758 115.982C139.68 115.921 139.618 115.852 139.57 115.774L139.284 115.26ZM148.176 121.104C147.595 121.104 147.149 120.941 146.837 120.616C146.529 120.287 146.375 119.834 146.375 119.258V115.533H145.693C145.606 115.533 145.532 115.505 145.472 115.449C145.411 115.393 145.381 115.308 145.381 115.195V114.558L146.453 114.383L146.791 112.563C146.813 112.476 146.854 112.409 146.915 112.361C146.975 112.314 147.053 112.29 147.149 112.29H147.981V114.389H149.762V115.533H147.981V119.147C147.981 119.355 148.031 119.518 148.13 119.635C148.234 119.752 148.375 119.81 148.553 119.81C148.652 119.81 148.735 119.8 148.8 119.778C148.869 119.752 148.928 119.726 148.975 119.7C149.027 119.674 149.073 119.65 149.112 119.628C149.151 119.602 149.19 119.589 149.229 119.589C149.276 119.589 149.315 119.602 149.346 119.628C149.376 119.65 149.409 119.685 149.443 119.732L149.924 120.512C149.69 120.707 149.422 120.855 149.118 120.954C148.815 121.054 148.501 121.104 148.176 121.104ZM155.035 116.898C155.035 116.69 155.005 116.495 154.944 116.313C154.888 116.127 154.801 115.965 154.684 115.826C154.567 115.687 154.418 115.579 154.236 115.501C154.058 115.419 153.85 115.377 153.612 115.377C153.148 115.377 152.782 115.51 152.513 115.774C152.249 116.038 152.08 116.413 152.006 116.898H155.035ZM151.974 117.867C152 118.209 152.06 118.506 152.156 118.757C152.251 119.004 152.377 119.21 152.533 119.375C152.689 119.535 152.873 119.657 153.085 119.739C153.302 119.817 153.54 119.856 153.8 119.856C154.06 119.856 154.283 119.826 154.47 119.765C154.66 119.704 154.825 119.637 154.964 119.563C155.107 119.49 155.23 119.423 155.334 119.362C155.443 119.301 155.547 119.271 155.646 119.271C155.781 119.271 155.88 119.321 155.945 119.42L156.407 120.005C156.229 120.213 156.03 120.389 155.809 120.532C155.588 120.671 155.356 120.783 155.113 120.87C154.875 120.952 154.63 121.011 154.379 121.046C154.132 121.08 153.891 121.098 153.657 121.098C153.194 121.098 152.762 121.022 152.364 120.87C151.965 120.714 151.618 120.486 151.324 120.188C151.029 119.884 150.797 119.511 150.628 119.069C150.459 118.623 150.375 118.107 150.375 117.522C150.375 117.067 150.448 116.641 150.596 116.242C150.743 115.839 150.953 115.49 151.226 115.195C151.504 114.896 151.839 114.66 152.234 114.487C152.632 114.314 153.081 114.227 153.579 114.227C154 114.227 154.387 114.294 154.743 114.428C155.098 114.563 155.404 114.76 155.659 115.02C155.915 115.276 156.114 115.592 156.257 115.969C156.405 116.342 156.478 116.768 156.478 117.249C156.478 117.492 156.452 117.657 156.4 117.743C156.348 117.826 156.249 117.867 156.101 117.867H151.974ZM165.141 116.898C165.141 116.69 165.11 116.495 165.05 116.313C164.993 116.127 164.907 115.965 164.79 115.826C164.673 115.687 164.523 115.579 164.341 115.501C164.164 115.419 163.956 115.377 163.717 115.377C163.254 115.377 162.887 115.51 162.619 115.774C162.354 116.038 162.185 116.413 162.112 116.898H165.141ZM162.079 117.867C162.105 118.209 162.166 118.506 162.261 118.757C162.357 119.004 162.482 119.21 162.638 119.375C162.794 119.535 162.978 119.657 163.191 119.739C163.407 119.817 163.646 119.856 163.906 119.856C164.166 119.856 164.389 119.826 164.575 119.765C164.766 119.704 164.931 119.637 165.069 119.563C165.212 119.49 165.336 119.423 165.44 119.362C165.548 119.301 165.652 119.271 165.752 119.271C165.886 119.271 165.986 119.321 166.051 119.42L166.512 120.005C166.335 120.213 166.135 120.389 165.914 120.532C165.693 120.671 165.461 120.783 165.219 120.87C164.98 120.952 164.736 121.011 164.484 121.046C164.237 121.08 163.997 121.098 163.763 121.098C163.299 121.098 162.868 121.022 162.469 120.87C162.071 120.714 161.724 120.486 161.429 120.188C161.135 119.884 160.903 119.511 160.734 119.069C160.565 118.623 160.48 118.107 160.48 117.522C160.48 117.067 160.554 116.641 160.701 116.242C160.849 115.839 161.059 115.49 161.332 115.195C161.609 114.896 161.945 114.66 162.339 114.487C162.738 114.314 163.186 114.227 163.685 114.227C164.105 114.227 164.493 114.294 164.848 114.428C165.204 114.563 165.509 114.76 165.765 115.02C166.02 115.276 166.22 115.592 166.363 115.969C166.51 116.342 166.584 116.768 166.584 117.249C166.584 117.492 166.558 117.657 166.506 117.743C166.454 117.826 166.354 117.867 166.207 117.867H162.079ZM173.636 114.331L170.991 121H169.535L166.889 114.331H168.215C168.336 114.331 168.436 114.359 168.514 114.415C168.596 114.472 168.651 114.543 168.677 114.63L169.964 118.192C170.033 118.4 170.094 118.604 170.146 118.803C170.198 119.002 170.243 119.202 170.282 119.401C170.325 119.202 170.373 119.002 170.425 118.803C170.477 118.604 170.54 118.4 170.614 118.192L171.927 114.63C171.957 114.543 172.011 114.472 172.089 114.415C172.167 114.359 172.26 114.331 172.369 114.331H173.636ZM178.585 116.898C178.585 116.69 178.555 116.495 178.494 116.313C178.438 116.127 178.351 115.965 178.234 115.826C178.117 115.687 177.968 115.579 177.786 115.501C177.608 115.419 177.4 115.377 177.162 115.377C176.698 115.377 176.332 115.51 176.063 115.774C175.799 116.038 175.63 116.413 175.556 116.898H178.585ZM175.524 117.867C175.55 118.209 175.61 118.506 175.706 118.757C175.801 119.004 175.927 119.21 176.083 119.375C176.239 119.535 176.423 119.657 176.635 119.739C176.852 119.817 177.09 119.856 177.35 119.856C177.61 119.856 177.833 119.826 178.02 119.765C178.21 119.704 178.375 119.637 178.514 119.563C178.657 119.49 178.78 119.423 178.884 119.362C178.992 119.301 179.096 119.271 179.196 119.271C179.33 119.271 179.43 119.321 179.495 119.42L179.957 120.005C179.779 120.213 179.58 120.389 179.359 120.532C179.138 120.671 178.906 120.783 178.663 120.87C178.425 120.952 178.18 121.011 177.929 121.046C177.682 121.08 177.441 121.098 177.207 121.098C176.743 121.098 176.312 121.022 175.914 120.87C175.515 120.714 175.168 120.486 174.874 120.188C174.579 119.884 174.347 119.511 174.178 119.069C174.009 118.623 173.925 118.107 173.925 117.522C173.925 117.067 173.998 116.641 174.146 116.242C174.293 115.839 174.503 115.49 174.776 115.195C175.053 114.896 175.389 114.66 175.784 114.487C176.182 114.314 176.631 114.227 177.129 114.227C177.549 114.227 177.937 114.294 178.293 114.428C178.648 114.563 178.953 114.76 179.209 115.02C179.465 115.276 179.664 115.592 179.807 115.969C179.954 116.342 180.028 116.768 180.028 117.249C180.028 117.492 180.002 117.657 179.95 117.743C179.898 117.826 179.798 117.867 179.651 117.867H175.524ZM182.734 115.15C182.869 115.016 183.01 114.892 183.157 114.779C183.309 114.662 183.467 114.565 183.631 114.487C183.8 114.405 183.98 114.342 184.171 114.298C184.362 114.251 184.57 114.227 184.795 114.227C185.159 114.227 185.482 114.29 185.763 114.415C186.045 114.537 186.279 114.71 186.465 114.935C186.656 115.156 186.799 115.423 186.894 115.735C186.994 116.043 187.044 116.383 187.044 116.755V121H185.438V116.755C185.438 116.348 185.345 116.034 185.159 115.813C184.973 115.588 184.689 115.475 184.307 115.475C184.03 115.475 183.77 115.538 183.527 115.663C183.285 115.789 183.055 115.96 182.838 116.177V121H181.233V114.331H182.214C182.422 114.331 182.559 114.428 182.624 114.623L182.734 115.15ZM190.705 121.104C190.124 121.104 189.678 120.941 189.366 120.616C189.058 120.287 188.904 119.834 188.904 119.258V115.533H188.222C188.135 115.533 188.062 115.505 188.001 115.449C187.94 115.393 187.91 115.308 187.91 115.195V114.558L188.982 114.383L189.32 112.563C189.342 112.476 189.383 112.409 189.444 112.361C189.505 112.314 189.583 112.29 189.678 112.29H190.51V114.389H192.291V115.533H190.51V119.147C190.51 119.355 190.56 119.518 190.659 119.635C190.763 119.752 190.904 119.81 191.082 119.81C191.182 119.81 191.264 119.8 191.329 119.778C191.398 119.752 191.457 119.726 191.504 119.7C191.556 119.674 191.602 119.65 191.641 119.628C191.68 119.602 191.719 119.589 191.758 119.589C191.806 119.589 191.845 119.602 191.875 119.628C191.905 119.65 191.938 119.685 191.972 119.732L192.453 120.512C192.219 120.707 191.951 120.855 191.647 120.954C191.344 121.054 191.03 121.104 190.705 121.104Z" fill="#1D1C1D"/>
<path d="M208.237 119.973L208.23 121H202.491V111.685H208.23V112.712H203.752V115.806H207.379V116.794H203.752V119.973H208.237ZM215.058 114.415L212.374 121H211.334L208.649 114.415H209.592C209.687 114.415 209.765 114.439 209.826 114.487C209.886 114.535 209.927 114.591 209.949 114.656L211.62 118.894C211.672 119.054 211.717 119.21 211.756 119.362C211.795 119.514 211.832 119.665 211.867 119.817C211.901 119.665 211.938 119.514 211.977 119.362C212.016 119.21 212.064 119.054 212.12 118.894L213.81 114.656C213.836 114.587 213.879 114.53 213.94 114.487C214.001 114.439 214.072 114.415 214.155 114.415H215.058ZM220.348 116.989C220.348 116.721 220.309 116.476 220.231 116.255C220.158 116.03 220.047 115.837 219.9 115.676C219.757 115.512 219.581 115.386 219.373 115.299C219.165 115.208 218.929 115.163 218.665 115.163C218.11 115.163 217.67 115.325 217.345 115.65C217.025 115.971 216.825 116.417 216.747 116.989H220.348ZM221.284 120.077C221.141 120.25 220.97 120.402 220.771 120.532C220.572 120.658 220.357 120.762 220.127 120.844C219.902 120.926 219.668 120.987 219.425 121.026C219.183 121.069 218.942 121.091 218.704 121.091C218.249 121.091 217.829 121.015 217.443 120.863C217.062 120.707 216.73 120.482 216.448 120.188C216.171 119.888 215.954 119.52 215.798 119.082C215.642 118.645 215.564 118.142 215.564 117.574C215.564 117.115 215.634 116.686 215.772 116.287C215.915 115.889 216.119 115.544 216.383 115.254C216.648 114.959 216.971 114.73 217.352 114.565C217.733 114.396 218.162 114.311 218.639 114.311C219.033 114.311 219.397 114.379 219.731 114.513C220.069 114.643 220.359 114.834 220.602 115.085C220.849 115.332 221.042 115.64 221.18 116.008C221.319 116.372 221.388 116.788 221.388 117.256C221.388 117.438 221.369 117.559 221.33 117.62C221.291 117.681 221.217 117.711 221.109 117.711H216.708C216.721 118.127 216.778 118.489 216.877 118.796C216.981 119.104 217.124 119.362 217.306 119.57C217.488 119.774 217.705 119.927 217.956 120.031C218.208 120.131 218.489 120.181 218.801 120.181C219.092 120.181 219.341 120.148 219.549 120.083C219.761 120.014 219.943 119.94 220.095 119.862C220.247 119.784 220.372 119.713 220.472 119.648C220.576 119.579 220.665 119.544 220.738 119.544C220.834 119.544 220.907 119.581 220.959 119.654L221.284 120.077ZM223.902 115.371C224.045 115.211 224.196 115.065 224.357 114.935C224.517 114.805 224.686 114.695 224.864 114.604C225.046 114.509 225.236 114.437 225.436 114.389C225.639 114.337 225.858 114.311 226.092 114.311C226.452 114.311 226.768 114.372 227.041 114.493C227.318 114.61 227.548 114.779 227.73 115C227.916 115.217 228.057 115.479 228.153 115.787C228.248 116.095 228.296 116.435 228.296 116.807V121H227.132V116.807C227.132 116.309 227.017 115.923 226.788 115.65C226.562 115.373 226.218 115.234 225.754 115.234C225.412 115.234 225.091 115.317 224.792 115.481C224.497 115.646 224.224 115.869 223.973 116.151V121H222.81V114.415H223.505C223.67 114.415 223.772 114.496 223.811 114.656L223.902 115.371ZM231.991 121.104C231.471 121.104 231.07 120.959 230.789 120.668C230.511 120.378 230.373 119.96 230.373 119.414V115.384H229.58C229.51 115.384 229.452 115.364 229.404 115.325C229.357 115.282 229.333 115.217 229.333 115.13V114.669L230.412 114.532L230.678 112.498C230.691 112.433 230.719 112.381 230.763 112.342C230.81 112.299 230.871 112.277 230.945 112.277H231.53V114.545H233.434V115.384H231.53V119.336C231.53 119.613 231.597 119.819 231.731 119.953C231.866 120.088 232.039 120.155 232.251 120.155C232.373 120.155 232.477 120.14 232.563 120.109C232.654 120.075 232.732 120.038 232.797 119.999C232.862 119.96 232.916 119.925 232.96 119.895C233.007 119.86 233.049 119.843 233.083 119.843C233.144 119.843 233.198 119.88 233.246 119.953L233.584 120.506C233.384 120.692 233.144 120.84 232.862 120.948C232.581 121.052 232.29 121.104 231.991 121.104ZM238.464 115.501C238.412 115.596 238.332 115.644 238.223 115.644C238.158 115.644 238.085 115.62 238.002 115.572C237.92 115.525 237.818 115.473 237.697 115.416C237.58 115.356 237.439 115.302 237.274 115.254C237.11 115.202 236.915 115.176 236.689 115.176C236.494 115.176 236.319 115.202 236.163 115.254C236.007 115.302 235.873 115.369 235.76 115.455C235.652 115.542 235.567 115.644 235.506 115.761C235.45 115.874 235.422 115.997 235.422 116.131C235.422 116.3 235.47 116.441 235.565 116.554C235.665 116.667 235.795 116.764 235.955 116.846C236.115 116.929 236.297 117.002 236.501 117.067C236.705 117.128 236.913 117.195 237.125 117.269C237.342 117.338 237.552 117.416 237.755 117.503C237.959 117.59 238.141 117.698 238.301 117.828C238.462 117.958 238.59 118.118 238.685 118.309C238.785 118.495 238.834 118.721 238.834 118.985C238.834 119.288 238.78 119.57 238.672 119.83C238.564 120.086 238.403 120.309 238.191 120.499C237.979 120.686 237.719 120.833 237.411 120.941C237.103 121.05 236.748 121.104 236.345 121.104C235.886 121.104 235.47 121.03 235.097 120.883C234.724 120.731 234.408 120.538 234.148 120.304L234.421 119.862C234.456 119.806 234.497 119.763 234.544 119.732C234.592 119.702 234.653 119.687 234.726 119.687C234.804 119.687 234.887 119.717 234.973 119.778C235.06 119.839 235.164 119.906 235.285 119.979C235.411 120.053 235.563 120.12 235.74 120.181C235.918 120.242 236.139 120.272 236.403 120.272C236.629 120.272 236.826 120.244 236.995 120.188C237.164 120.127 237.305 120.047 237.417 119.947C237.53 119.847 237.612 119.732 237.664 119.602C237.721 119.472 237.749 119.334 237.749 119.186C237.749 119.004 237.699 118.855 237.599 118.738C237.504 118.617 237.376 118.515 237.216 118.432C237.056 118.346 236.871 118.272 236.663 118.211C236.46 118.146 236.25 118.079 236.033 118.01C235.821 117.941 235.61 117.863 235.402 117.776C235.199 117.685 235.017 117.572 234.856 117.438C234.696 117.304 234.566 117.139 234.466 116.944C234.371 116.745 234.323 116.504 234.323 116.222C234.323 115.971 234.375 115.731 234.479 115.501C234.583 115.267 234.735 115.063 234.934 114.89C235.134 114.712 235.379 114.571 235.669 114.468C235.959 114.363 236.291 114.311 236.663 114.311C237.097 114.311 237.485 114.381 237.827 114.519C238.174 114.654 238.473 114.84 238.724 115.078L238.464 115.501ZM247.148 118.036C246.615 118.053 246.16 118.097 245.783 118.166C245.41 118.231 245.104 118.318 244.866 118.426C244.632 118.534 244.461 118.662 244.353 118.809C244.249 118.957 244.197 119.121 244.197 119.303C244.197 119.477 244.225 119.626 244.281 119.752C244.337 119.878 244.413 119.982 244.509 120.064C244.608 120.142 244.723 120.2 244.853 120.239C244.987 120.274 245.13 120.291 245.282 120.291C245.486 120.291 245.672 120.272 245.841 120.233C246.01 120.19 246.168 120.129 246.316 120.051C246.467 119.973 246.61 119.88 246.745 119.771C246.883 119.663 247.018 119.54 247.148 119.401V118.036ZM243.41 115.345C243.774 114.994 244.166 114.732 244.587 114.558C245.007 114.385 245.473 114.298 245.984 114.298C246.352 114.298 246.68 114.359 246.966 114.48C247.252 114.602 247.492 114.771 247.687 114.987C247.882 115.204 248.029 115.466 248.129 115.774C248.229 116.082 248.279 116.42 248.279 116.788V121H247.765C247.652 121 247.566 120.983 247.505 120.948C247.444 120.909 247.397 120.835 247.362 120.727L247.232 120.103C247.059 120.263 246.89 120.406 246.725 120.532C246.56 120.653 246.387 120.757 246.205 120.844C246.023 120.926 245.828 120.989 245.62 121.033C245.416 121.08 245.189 121.104 244.938 121.104C244.682 121.104 244.441 121.069 244.216 121C243.991 120.926 243.794 120.818 243.625 120.675C243.46 120.532 243.328 120.352 243.228 120.135C243.133 119.914 243.085 119.654 243.085 119.355C243.085 119.095 243.157 118.846 243.3 118.608C243.443 118.365 243.674 118.151 243.995 117.964C244.316 117.778 244.734 117.626 245.25 117.509C245.765 117.388 246.398 117.319 247.148 117.301V116.788C247.148 116.277 247.037 115.891 246.816 115.631C246.595 115.367 246.272 115.234 245.848 115.234C245.562 115.234 245.321 115.271 245.126 115.345C244.935 115.414 244.769 115.494 244.626 115.585C244.487 115.672 244.366 115.752 244.262 115.826C244.162 115.895 244.062 115.93 243.963 115.93C243.885 115.93 243.817 115.91 243.761 115.871C243.705 115.828 243.657 115.776 243.618 115.715L243.41 115.345ZM251.205 119.414C251.417 119.7 251.649 119.901 251.9 120.018C252.151 120.135 252.433 120.194 252.745 120.194C253.36 120.194 253.833 119.975 254.162 119.537C254.491 119.1 254.656 118.476 254.656 117.665C254.656 117.236 254.617 116.868 254.539 116.56C254.465 116.253 254.357 116.001 254.214 115.806C254.071 115.607 253.896 115.462 253.688 115.371C253.48 115.28 253.243 115.234 252.979 115.234C252.602 115.234 252.271 115.321 251.985 115.494C251.703 115.668 251.443 115.913 251.205 116.229V119.414ZM251.146 115.436C251.423 115.094 251.744 114.818 252.108 114.61C252.472 114.402 252.888 114.298 253.356 114.298C253.737 114.298 254.082 114.372 254.39 114.519C254.697 114.662 254.959 114.877 255.176 115.163C255.393 115.445 255.56 115.796 255.677 116.216C255.794 116.636 255.852 117.119 255.852 117.665C255.852 118.151 255.787 118.604 255.657 119.024C255.527 119.44 255.339 119.802 255.092 120.109C254.849 120.413 254.55 120.653 254.195 120.831C253.844 121.004 253.447 121.091 253.005 121.091C252.602 121.091 252.255 121.024 251.965 120.889C251.679 120.751 251.426 120.56 251.205 120.317V123.23H250.041V114.415H250.737C250.901 114.415 251.003 114.496 251.042 114.656L251.146 115.436ZM258.492 119.414C258.704 119.7 258.936 119.901 259.187 120.018C259.438 120.135 259.72 120.194 260.032 120.194C260.647 120.194 261.12 119.975 261.449 119.537C261.778 119.1 261.943 118.476 261.943 117.665C261.943 117.236 261.904 116.868 261.826 116.56C261.752 116.253 261.644 116.001 261.501 115.806C261.358 115.607 261.183 115.462 260.975 115.371C260.767 115.28 260.53 115.234 260.266 115.234C259.889 115.234 259.558 115.321 259.272 115.494C258.99 115.668 258.73 115.913 258.492 116.229V119.414ZM258.433 115.436C258.71 115.094 259.031 114.818 259.395 114.61C259.759 114.402 260.175 114.298 260.643 114.298C261.024 114.298 261.369 114.372 261.677 114.519C261.984 114.662 262.246 114.877 262.463 115.163C262.68 115.445 262.847 115.796 262.964 116.216C263.081 116.636 263.139 117.119 263.139 117.665C263.139 118.151 263.074 118.604 262.944 119.024C262.814 119.44 262.626 119.802 262.379 120.109C262.136 120.413 261.837 120.653 261.482 120.831C261.131 121.004 260.734 121.091 260.292 121.091C259.889 121.091 259.542 121.024 259.252 120.889C258.966 120.751 258.713 120.56 258.492 120.317V123.23H257.328V114.415H258.024C258.188 114.415 258.29 114.496 258.329 114.656L258.433 115.436Z" fill="#1D1C1D" fill-opacity="0.7"/>
<rect x="92" y="135" width="18" height="18" rx="3" fill="#96D4B7"/>
<path d="M121.172 140.992V143.774H124.695V145.171H121.172V149H119.417V139.601H125.345V140.992H121.172ZM128.178 142.331V149H126.566V142.331H128.178ZM128.399 140.387C128.399 140.526 128.371 140.656 128.314 140.777C128.258 140.899 128.182 141.005 128.087 141.096C127.996 141.187 127.887 141.261 127.762 141.317C127.636 141.369 127.502 141.395 127.359 141.395C127.22 141.395 127.088 141.369 126.962 141.317C126.841 141.261 126.735 141.187 126.644 141.096C126.553 141.005 126.479 140.899 126.423 140.777C126.371 140.656 126.345 140.526 126.345 140.387C126.345 140.244 126.371 140.11 126.423 139.984C126.479 139.859 126.553 139.75 126.644 139.659C126.735 139.568 126.841 139.497 126.962 139.445C127.088 139.389 127.22 139.36 127.359 139.36C127.502 139.36 127.636 139.389 127.762 139.445C127.887 139.497 127.996 139.568 128.087 139.659C128.182 139.75 128.258 139.859 128.314 139.984C128.371 140.11 128.399 140.244 128.399 140.387ZM131.316 143.15C131.45 143.016 131.591 142.892 131.738 142.779C131.89 142.662 132.048 142.565 132.213 142.487C132.382 142.405 132.562 142.342 132.752 142.298C132.943 142.251 133.151 142.227 133.376 142.227C133.74 142.227 134.063 142.29 134.345 142.415C134.627 142.537 134.861 142.71 135.047 142.935C135.238 143.156 135.381 143.423 135.476 143.735C135.576 144.043 135.625 144.383 135.625 144.755V149H134.02V144.755C134.02 144.348 133.927 144.034 133.74 143.813C133.554 143.588 133.27 143.475 132.889 143.475C132.612 143.475 132.352 143.538 132.109 143.663C131.866 143.789 131.637 143.96 131.42 144.177V149H129.814V142.331H130.796C131.004 142.331 131.14 142.428 131.205 142.623L131.316 143.15ZM141.338 144.034C141.156 143.813 140.957 143.657 140.74 143.566C140.528 143.475 140.298 143.429 140.051 143.429C139.809 143.429 139.59 143.475 139.395 143.566C139.2 143.657 139.033 143.796 138.894 143.982C138.756 144.164 138.65 144.398 138.576 144.684C138.502 144.966 138.465 145.299 138.465 145.685C138.465 146.075 138.496 146.406 138.556 146.679C138.621 146.948 138.712 147.169 138.829 147.342C138.946 147.511 139.089 147.635 139.258 147.713C139.427 147.787 139.616 147.823 139.824 147.823C140.158 147.823 140.441 147.754 140.675 147.615C140.909 147.477 141.13 147.28 141.338 147.024V144.034ZM142.944 139.341V149H141.962C141.75 149 141.616 148.902 141.559 148.707L141.423 148.064C141.154 148.372 140.844 148.621 140.493 148.811C140.147 149.002 139.742 149.098 139.278 149.098C138.914 149.098 138.58 149.022 138.277 148.87C137.974 148.718 137.711 148.499 137.49 148.213C137.274 147.923 137.105 147.566 136.983 147.141C136.866 146.716 136.808 146.231 136.808 145.685C136.808 145.191 136.875 144.732 137.009 144.307C137.144 143.882 137.337 143.514 137.588 143.202C137.839 142.89 138.14 142.647 138.491 142.474C138.842 142.296 139.237 142.207 139.674 142.207C140.047 142.207 140.366 142.266 140.63 142.383C140.894 142.5 141.13 142.658 141.338 142.857V139.341H142.944ZM152.467 143.741C152.419 143.802 152.372 143.85 152.324 143.884C152.281 143.919 152.216 143.936 152.129 143.936C152.047 143.936 151.966 143.913 151.888 143.865C151.81 143.813 151.717 143.757 151.609 143.696C151.501 143.631 151.371 143.575 151.219 143.527C151.072 143.475 150.887 143.449 150.666 143.449C150.385 143.449 150.138 143.501 149.925 143.605C149.713 143.705 149.535 143.85 149.392 144.04C149.254 144.231 149.15 144.463 149.08 144.736C149.011 145.005 148.976 145.31 148.976 145.652C148.976 146.008 149.013 146.324 149.087 146.601C149.165 146.879 149.275 147.113 149.418 147.303C149.561 147.49 149.735 147.633 149.938 147.732C150.142 147.828 150.372 147.875 150.627 147.875C150.883 147.875 151.089 147.845 151.245 147.784C151.405 147.719 151.54 147.65 151.648 147.576C151.756 147.498 151.849 147.429 151.927 147.368C152.01 147.303 152.101 147.271 152.2 147.271C152.33 147.271 152.428 147.321 152.493 147.42L152.954 148.005C152.777 148.213 152.584 148.389 152.376 148.532C152.168 148.671 151.951 148.783 151.726 148.87C151.505 148.952 151.275 149.011 151.037 149.046C150.803 149.08 150.569 149.098 150.335 149.098C149.923 149.098 149.535 149.022 149.171 148.87C148.807 148.714 148.489 148.489 148.216 148.194C147.943 147.899 147.726 147.54 147.566 147.115C147.41 146.686 147.332 146.198 147.332 145.652C147.332 145.163 147.401 144.71 147.54 144.294C147.683 143.874 147.891 143.512 148.164 143.208C148.437 142.901 148.775 142.66 149.178 142.487C149.581 142.314 150.045 142.227 150.569 142.227C151.067 142.227 151.503 142.307 151.875 142.468C152.252 142.628 152.59 142.857 152.889 143.156L152.467 143.741ZM155.586 139.341V149H153.98V139.341H155.586ZM158.85 142.331V149H157.238V142.331H158.85ZM159.071 140.387C159.071 140.526 159.042 140.656 158.986 140.777C158.93 140.899 158.854 141.005 158.759 141.096C158.668 141.187 158.559 141.261 158.434 141.317C158.308 141.369 158.174 141.395 158.031 141.395C157.892 141.395 157.76 141.369 157.634 141.317C157.513 141.261 157.407 141.187 157.316 141.096C157.225 141.005 157.151 140.899 157.095 140.777C157.043 140.656 157.017 140.526 157.017 140.387C157.017 140.244 157.043 140.11 157.095 139.984C157.151 139.859 157.225 139.75 157.316 139.659C157.407 139.568 157.513 139.497 157.634 139.445C157.76 139.389 157.892 139.36 158.031 139.36C158.174 139.36 158.308 139.389 158.434 139.445C158.559 139.497 158.668 139.568 158.759 139.659C158.854 139.75 158.93 139.859 158.986 139.984C159.042 140.11 159.071 140.244 159.071 140.387ZM164.783 144.898C164.783 144.69 164.753 144.495 164.692 144.313C164.636 144.127 164.549 143.965 164.432 143.826C164.315 143.687 164.165 143.579 163.983 143.501C163.806 143.419 163.598 143.377 163.359 143.377C162.896 143.377 162.53 143.51 162.261 143.774C161.997 144.038 161.828 144.413 161.754 144.898H164.783ZM161.721 145.867C161.747 146.209 161.808 146.506 161.903 146.757C161.999 147.004 162.124 147.21 162.28 147.375C162.436 147.535 162.621 147.657 162.833 147.739C163.05 147.817 163.288 147.856 163.548 147.856C163.808 147.856 164.031 147.826 164.217 147.765C164.408 147.704 164.573 147.637 164.711 147.563C164.854 147.49 164.978 147.423 165.082 147.362C165.19 147.301 165.294 147.271 165.394 147.271C165.528 147.271 165.628 147.321 165.693 147.42L166.154 148.005C165.977 148.213 165.777 148.389 165.556 148.532C165.335 148.671 165.104 148.783 164.861 148.87C164.623 148.952 164.378 149.011 164.126 149.046C163.879 149.08 163.639 149.098 163.405 149.098C162.941 149.098 162.51 149.022 162.111 148.87C161.713 148.714 161.366 148.486 161.071 148.188C160.777 147.884 160.545 147.511 160.376 147.069C160.207 146.623 160.122 146.107 160.122 145.522C160.122 145.067 160.196 144.641 160.343 144.242C160.491 143.839 160.701 143.49 160.974 143.195C161.251 142.896 161.587 142.66 161.981 142.487C162.38 142.314 162.829 142.227 163.327 142.227C163.747 142.227 164.135 142.294 164.49 142.428C164.846 142.563 165.151 142.76 165.407 143.02C165.663 143.276 165.862 143.592 166.005 143.969C166.152 144.342 166.226 144.768 166.226 145.249C166.226 145.492 166.2 145.657 166.148 145.743C166.096 145.826 165.996 145.867 165.849 145.867H161.721ZM168.932 143.15C169.067 143.016 169.207 142.892 169.355 142.779C169.506 142.662 169.665 142.565 169.829 142.487C169.998 142.405 170.178 142.342 170.369 142.298C170.559 142.251 170.767 142.227 170.993 142.227C171.357 142.227 171.68 142.29 171.961 142.415C172.243 142.537 172.477 142.71 172.663 142.935C172.854 143.156 172.997 143.423 173.092 143.735C173.192 144.043 173.242 144.383 173.242 144.755V149H171.636V144.755C171.636 144.348 171.543 144.034 171.357 143.813C171.17 143.588 170.887 143.475 170.505 143.475C170.228 143.475 169.968 143.538 169.725 143.663C169.483 143.789 169.253 143.96 169.036 144.177V149H167.431V142.331H168.412C168.62 142.331 168.757 142.428 168.822 142.623L168.932 143.15ZM176.903 149.104C176.322 149.104 175.876 148.941 175.564 148.616C175.256 148.287 175.102 147.834 175.102 147.258V143.533H174.42C174.333 143.533 174.259 143.505 174.199 143.449C174.138 143.393 174.108 143.308 174.108 143.195V142.558L175.18 142.383L175.518 140.563C175.54 140.476 175.581 140.409 175.642 140.361C175.702 140.314 175.78 140.29 175.876 140.29H176.708V142.389H178.489V143.533H176.708V147.147C176.708 147.355 176.758 147.518 176.857 147.635C176.961 147.752 177.102 147.81 177.28 147.81C177.379 147.81 177.462 147.8 177.527 147.778C177.596 147.752 177.655 147.726 177.702 147.7C177.754 147.674 177.8 147.65 177.839 147.628C177.878 147.602 177.917 147.589 177.956 147.589C178.003 147.589 178.042 147.602 178.073 147.628C178.103 147.65 178.136 147.685 178.17 147.732L178.651 148.512C178.417 148.707 178.149 148.855 177.845 148.954C177.542 149.054 177.228 149.104 176.903 149.104ZM182.678 149V142.331H183.659C183.867 142.331 184.004 142.428 184.069 142.623L184.173 143.117C184.29 142.987 184.411 142.868 184.537 142.76C184.667 142.652 184.803 142.558 184.946 142.48C185.094 142.402 185.25 142.342 185.414 142.298C185.583 142.251 185.767 142.227 185.967 142.227C186.387 142.227 186.732 142.342 187 142.571C187.273 142.797 187.477 143.098 187.611 143.475C187.715 143.254 187.845 143.065 188.001 142.909C188.157 142.749 188.328 142.619 188.515 142.519C188.701 142.42 188.898 142.346 189.106 142.298C189.319 142.251 189.531 142.227 189.743 142.227C190.112 142.227 190.439 142.283 190.725 142.396C191.011 142.509 191.251 142.673 191.446 142.89C191.641 143.107 191.789 143.371 191.888 143.683C191.992 143.995 192.044 144.352 192.044 144.755V149H190.439V144.755C190.439 144.331 190.346 144.012 190.159 143.8C189.973 143.583 189.7 143.475 189.34 143.475C189.176 143.475 189.022 143.503 188.879 143.559C188.74 143.616 188.617 143.698 188.508 143.806C188.404 143.91 188.322 144.043 188.261 144.203C188.201 144.363 188.17 144.547 188.17 144.755V149H186.558V144.755C186.558 144.309 186.467 143.984 186.285 143.78C186.108 143.577 185.845 143.475 185.499 143.475C185.265 143.475 185.046 143.533 184.842 143.65C184.643 143.763 184.457 143.919 184.283 144.118V149H182.678ZM197.867 144.898C197.867 144.69 197.837 144.495 197.776 144.313C197.72 144.127 197.633 143.965 197.516 143.826C197.399 143.687 197.249 143.579 197.067 143.501C196.89 143.419 196.682 143.377 196.443 143.377C195.98 143.377 195.614 143.51 195.345 143.774C195.081 144.038 194.912 144.413 194.838 144.898H197.867ZM194.805 145.867C194.831 146.209 194.892 146.506 194.987 146.757C195.083 147.004 195.208 147.21 195.364 147.375C195.52 147.535 195.705 147.657 195.917 147.739C196.134 147.817 196.372 147.856 196.632 147.856C196.892 147.856 197.115 147.826 197.301 147.765C197.492 147.704 197.657 147.637 197.795 147.563C197.938 147.49 198.062 147.423 198.166 147.362C198.274 147.301 198.378 147.271 198.478 147.271C198.612 147.271 198.712 147.321 198.777 147.42L199.238 148.005C199.061 148.213 198.861 148.389 198.64 148.532C198.419 148.671 198.188 148.783 197.945 148.87C197.707 148.952 197.462 149.011 197.21 149.046C196.963 149.08 196.723 149.098 196.489 149.098C196.025 149.098 195.594 149.022 195.195 148.87C194.797 148.714 194.45 148.486 194.155 148.188C193.861 147.884 193.629 147.511 193.46 147.069C193.291 146.623 193.206 146.107 193.206 145.522C193.206 145.067 193.28 144.641 193.427 144.242C193.575 143.839 193.785 143.49 194.058 143.195C194.335 142.896 194.671 142.66 195.065 142.487C195.464 142.314 195.913 142.227 196.411 142.227C196.831 142.227 197.219 142.294 197.574 142.428C197.93 142.563 198.235 142.76 198.491 143.02C198.747 143.276 198.946 143.592 199.089 143.969C199.236 144.342 199.31 144.768 199.31 145.249C199.31 145.492 199.284 145.657 199.232 145.743C199.18 145.826 199.08 145.867 198.933 145.867H194.805ZM202.674 149.104C202.094 149.104 201.647 148.941 201.335 148.616C201.028 148.287 200.874 147.834 200.874 147.258V143.533H200.191C200.105 143.533 200.031 143.505 199.97 143.449C199.91 143.393 199.879 143.308 199.879 143.195V142.558L200.952 142.383L201.29 140.563C201.311 140.476 201.353 140.409 201.413 140.361C201.474 140.314 201.552 140.29 201.647 140.29H202.479V142.389H204.26V143.533H202.479V147.147C202.479 147.355 202.529 147.518 202.629 147.635C202.733 147.752 202.874 147.81 203.051 147.81C203.151 147.81 203.233 147.8 203.298 147.778C203.368 147.752 203.426 147.726 203.474 147.7C203.526 147.674 203.571 147.65 203.61 147.628C203.649 147.602 203.688 147.589 203.727 147.589C203.775 147.589 203.814 147.602 203.844 147.628C203.875 147.65 203.907 147.685 203.942 147.732L204.423 148.512C204.189 148.707 203.92 148.855 203.617 148.954C203.313 149.054 202.999 149.104 202.674 149.104ZM206.803 143.488C207.011 143.089 207.258 142.777 207.544 142.552C207.83 142.322 208.168 142.207 208.558 142.207C208.865 142.207 209.112 142.275 209.299 142.409L209.195 143.611C209.173 143.689 209.14 143.746 209.097 143.78C209.058 143.811 209.004 143.826 208.935 143.826C208.87 143.826 208.772 143.815 208.642 143.793C208.516 143.772 208.393 143.761 208.272 143.761C208.094 143.761 207.936 143.787 207.797 143.839C207.658 143.891 207.533 143.967 207.42 144.066C207.312 144.162 207.214 144.279 207.128 144.417C207.045 144.556 206.967 144.714 206.894 144.892V149H205.288V142.331H206.231C206.395 142.331 206.51 142.361 206.575 142.422C206.64 142.478 206.683 142.582 206.705 142.734L206.803 143.488ZM211.802 142.331V149H210.19V142.331H211.802ZM212.023 140.387C212.023 140.526 211.995 140.656 211.938 140.777C211.882 140.899 211.806 141.005 211.711 141.096C211.62 141.187 211.511 141.261 211.386 141.317C211.26 141.369 211.126 141.395 210.983 141.395C210.844 141.395 210.712 141.369 210.586 141.317C210.465 141.261 210.359 141.187 210.268 141.096C210.177 141.005 210.103 140.899 210.047 140.777C209.995 140.656 209.969 140.526 209.969 140.387C209.969 140.244 209.995 140.11 210.047 139.984C210.103 139.859 210.177 139.75 210.268 139.659C210.359 139.568 210.465 139.497 210.586 139.445C210.712 139.389 210.844 139.36 210.983 139.36C211.126 139.36 211.26 139.389 211.386 139.445C211.511 139.497 211.62 139.568 211.711 139.659C211.806 139.75 211.882 139.859 211.938 139.984C211.995 140.11 212.023 140.244 212.023 140.387ZM218.216 143.741C218.168 143.802 218.121 143.85 218.073 143.884C218.03 143.919 217.965 143.936 217.878 143.936C217.796 143.936 217.716 143.913 217.638 143.865C217.56 143.813 217.466 143.757 217.358 143.696C217.25 143.631 217.12 143.575 216.968 143.527C216.821 143.475 216.637 143.449 216.416 143.449C216.134 143.449 215.887 143.501 215.675 143.605C215.462 143.705 215.285 143.85 215.142 144.04C215.003 144.231 214.899 144.463 214.83 144.736C214.76 145.005 214.726 145.31 214.726 145.652C214.726 146.008 214.762 146.324 214.836 146.601C214.914 146.879 215.025 147.113 215.168 147.303C215.311 147.49 215.484 147.633 215.688 147.732C215.891 147.828 216.121 147.875 216.377 147.875C216.632 147.875 216.838 147.845 216.994 147.784C217.154 147.719 217.289 147.65 217.397 147.576C217.505 147.498 217.599 147.429 217.677 147.368C217.759 147.303 217.85 147.271 217.95 147.271C218.08 147.271 218.177 147.321 218.242 147.42L218.704 148.005C218.526 148.213 218.333 148.389 218.125 148.532C217.917 148.671 217.7 148.783 217.475 148.87C217.254 148.952 217.024 149.011 216.786 149.046C216.552 149.08 216.318 149.098 216.084 149.098C215.672 149.098 215.285 149.022 214.921 148.87C214.557 148.714 214.238 148.489 213.965 148.194C213.692 147.899 213.475 147.54 213.315 147.115C213.159 146.686 213.081 146.198 213.081 145.652C213.081 145.163 213.15 144.71 213.289 144.294C213.432 143.874 213.64 143.512 213.913 143.208C214.186 142.901 214.524 142.66 214.927 142.487C215.33 142.314 215.794 142.227 216.318 142.227C216.816 142.227 217.252 142.307 217.625 142.468C218.002 142.628 218.34 142.857 218.639 143.156L218.216 143.741ZM223.779 143.631C223.736 143.7 223.69 143.75 223.642 143.78C223.595 143.806 223.534 143.819 223.46 143.819C223.382 143.819 223.298 143.798 223.207 143.754C223.12 143.711 223.018 143.663 222.901 143.611C222.784 143.555 222.65 143.505 222.498 143.462C222.351 143.419 222.176 143.397 221.972 143.397C221.656 143.397 221.406 143.464 221.224 143.598C221.047 143.733 220.958 143.908 220.958 144.125C220.958 144.268 221.003 144.389 221.094 144.489C221.19 144.584 221.313 144.669 221.465 144.742C221.621 144.816 221.796 144.883 221.991 144.944C222.186 145 222.384 145.063 222.583 145.132C222.787 145.202 222.986 145.282 223.181 145.373C223.376 145.46 223.549 145.572 223.701 145.711C223.857 145.845 223.98 146.008 224.071 146.198C224.167 146.389 224.214 146.619 224.214 146.887C224.214 147.208 224.156 147.505 224.039 147.778C223.926 148.047 223.757 148.281 223.532 148.48C223.307 148.675 223.027 148.829 222.693 148.941C222.364 149.05 221.983 149.104 221.549 149.104C221.32 149.104 221.094 149.082 220.873 149.039C220.657 149 220.447 148.944 220.243 148.87C220.044 148.796 219.857 148.71 219.684 148.61C219.515 148.51 219.365 148.402 219.235 148.285L219.606 147.674C219.654 147.6 219.71 147.544 219.775 147.505C219.84 147.466 219.922 147.446 220.022 147.446C220.122 147.446 220.215 147.475 220.301 147.531C220.392 147.587 220.496 147.648 220.613 147.713C220.73 147.778 220.867 147.839 221.023 147.895C221.183 147.951 221.385 147.979 221.627 147.979C221.818 147.979 221.981 147.958 222.115 147.914C222.254 147.867 222.366 147.806 222.453 147.732C222.544 147.659 222.609 147.574 222.648 147.479C222.691 147.379 222.713 147.277 222.713 147.173C222.713 147.017 222.665 146.89 222.57 146.79C222.479 146.69 222.355 146.604 222.199 146.53C222.048 146.456 221.872 146.391 221.673 146.335C221.478 146.274 221.276 146.209 221.068 146.14C220.865 146.071 220.663 145.99 220.464 145.899C220.269 145.804 220.093 145.685 219.937 145.542C219.786 145.399 219.662 145.223 219.567 145.015C219.476 144.807 219.43 144.556 219.43 144.261C219.43 143.988 219.485 143.728 219.593 143.481C219.701 143.234 219.859 143.02 220.067 142.838C220.28 142.652 220.542 142.504 220.854 142.396C221.17 142.283 221.534 142.227 221.946 142.227C222.405 142.227 222.823 142.303 223.2 142.454C223.577 142.606 223.892 142.805 224.143 143.052L223.779 143.631Z" fill="#1D1C1D"/>
<path d="M244.102 139.685V149H242.997V142.155C242.997 142.064 242.999 141.967 243.003 141.863C243.012 141.759 243.021 141.653 243.029 141.544L239.831 147.368C239.732 147.563 239.58 147.661 239.376 147.661H239.194C238.991 147.661 238.839 147.563 238.739 147.368L235.476 141.518C235.502 141.748 235.515 141.96 235.515 142.155V149H234.41V139.685H235.34C235.452 139.685 235.539 139.696 235.6 139.718C235.66 139.74 235.719 139.8 235.775 139.9L238.993 145.633C239.045 145.737 239.095 145.845 239.142 145.958C239.194 146.071 239.242 146.185 239.285 146.302C239.329 146.185 239.374 146.071 239.422 145.958C239.469 145.841 239.521 145.73 239.578 145.626L242.737 139.9C242.789 139.8 242.845 139.74 242.906 139.718C242.971 139.696 243.06 139.685 243.172 139.685H244.102ZM250.414 144.989C250.414 144.721 250.375 144.476 250.297 144.255C250.224 144.03 250.113 143.837 249.966 143.676C249.823 143.512 249.647 143.386 249.439 143.299C249.231 143.208 248.995 143.163 248.731 143.163C248.176 143.163 247.736 143.325 247.411 143.65C247.091 143.971 246.891 144.417 246.813 144.989H250.414ZM251.35 148.077C251.207 148.25 251.036 148.402 250.837 148.532C250.637 148.658 250.423 148.762 250.193 148.844C249.968 148.926 249.734 148.987 249.491 149.026C249.249 149.069 249.008 149.091 248.77 149.091C248.315 149.091 247.894 149.015 247.509 148.863C247.127 148.707 246.796 148.482 246.514 148.188C246.237 147.888 246.02 147.52 245.864 147.082C245.708 146.645 245.63 146.142 245.63 145.574C245.63 145.115 245.7 144.686 245.838 144.287C245.981 143.889 246.185 143.544 246.449 143.254C246.714 142.959 247.036 142.73 247.418 142.565C247.799 142.396 248.228 142.311 248.705 142.311C249.099 142.311 249.463 142.379 249.797 142.513C250.135 142.643 250.425 142.834 250.668 143.085C250.915 143.332 251.108 143.64 251.246 144.008C251.385 144.372 251.454 144.788 251.454 145.256C251.454 145.438 251.435 145.559 251.396 145.62C251.357 145.681 251.283 145.711 251.175 145.711H246.774C246.787 146.127 246.844 146.489 246.943 146.796C247.047 147.104 247.19 147.362 247.372 147.57C247.554 147.774 247.771 147.927 248.022 148.031C248.274 148.131 248.555 148.181 248.867 148.181C249.158 148.181 249.407 148.148 249.615 148.083C249.827 148.014 250.009 147.94 250.161 147.862C250.312 147.784 250.438 147.713 250.538 147.648C250.642 147.579 250.731 147.544 250.804 147.544C250.9 147.544 250.973 147.581 251.025 147.654L251.35 148.077ZM254.846 149.104C254.326 149.104 253.925 148.959 253.644 148.668C253.366 148.378 253.228 147.96 253.228 147.414V143.384H252.435C252.365 143.384 252.307 143.364 252.259 143.325C252.212 143.282 252.188 143.217 252.188 143.13V142.669L253.267 142.532L253.533 140.498C253.546 140.433 253.574 140.381 253.618 140.342C253.665 140.299 253.726 140.277 253.8 140.277H254.385V142.545H256.289V143.384H254.385V147.336C254.385 147.613 254.452 147.819 254.586 147.953C254.721 148.088 254.894 148.155 255.106 148.155C255.228 148.155 255.332 148.14 255.418 148.109C255.509 148.075 255.587 148.038 255.652 147.999C255.717 147.96 255.771 147.925 255.815 147.895C255.862 147.86 255.904 147.843 255.938 147.843C255.999 147.843 256.053 147.88 256.101 147.953L256.439 148.506C256.239 148.692 255.999 148.84 255.717 148.948C255.436 149.052 255.145 149.104 254.846 149.104ZM258.582 143.735C258.79 143.284 259.046 142.933 259.349 142.682C259.653 142.426 260.023 142.298 260.461 142.298C260.6 142.298 260.732 142.314 260.857 142.344C260.987 142.374 261.102 142.422 261.202 142.487L261.117 143.351C261.091 143.46 261.026 143.514 260.922 143.514C260.862 143.514 260.773 143.501 260.656 143.475C260.539 143.449 260.407 143.436 260.259 143.436C260.051 143.436 259.865 143.466 259.7 143.527C259.54 143.588 259.395 143.679 259.265 143.8C259.139 143.917 259.024 144.064 258.92 144.242C258.821 144.415 258.73 144.615 258.647 144.84V149H257.484V142.415H258.147C258.273 142.415 258.359 142.439 258.407 142.487C258.455 142.535 258.487 142.617 258.504 142.734L258.582 143.735ZM263.441 142.415V149H262.284V142.415H263.441ZM263.688 140.348C263.688 140.461 263.664 140.567 263.617 140.667C263.573 140.762 263.513 140.849 263.435 140.927C263.361 141.001 263.272 141.059 263.168 141.102C263.069 141.146 262.962 141.167 262.85 141.167C262.737 141.167 262.631 141.146 262.531 141.102C262.436 141.059 262.351 141.001 262.278 140.927C262.204 140.849 262.146 140.762 262.102 140.667C262.059 140.567 262.037 140.461 262.037 140.348C262.037 140.236 262.059 140.13 262.102 140.03C262.146 139.926 262.204 139.837 262.278 139.763C262.351 139.685 262.436 139.625 262.531 139.581C262.631 139.538 262.737 139.516 262.85 139.516C262.962 139.516 263.069 139.538 263.168 139.581C263.272 139.625 263.361 139.685 263.435 139.763C263.513 139.837 263.573 139.926 263.617 140.03C263.664 140.13 263.688 140.236 263.688 140.348ZM269.925 143.585C269.89 143.633 269.855 143.67 269.821 143.696C269.786 143.722 269.738 143.735 269.678 143.735C269.613 143.735 269.541 143.709 269.463 143.657C269.385 143.601 269.288 143.54 269.171 143.475C269.058 143.41 268.917 143.351 268.748 143.299C268.584 143.243 268.38 143.215 268.137 143.215C267.812 143.215 267.526 143.273 267.279 143.39C267.032 143.503 266.824 143.668 266.655 143.884C266.491 144.101 266.365 144.363 266.278 144.671C266.196 144.979 266.155 145.323 266.155 145.704C266.155 146.103 266.2 146.458 266.291 146.77C266.382 147.078 266.51 147.338 266.675 147.55C266.844 147.758 267.045 147.919 267.279 148.031C267.518 148.14 267.784 148.194 268.079 148.194C268.36 148.194 268.592 148.161 268.774 148.096C268.956 148.027 269.106 147.951 269.223 147.869C269.344 147.787 269.444 147.713 269.522 147.648C269.604 147.579 269.684 147.544 269.762 147.544C269.858 147.544 269.931 147.581 269.983 147.654L270.308 148.077C270.165 148.255 270.003 148.406 269.821 148.532C269.639 148.658 269.442 148.764 269.229 148.85C269.021 148.933 268.802 148.993 268.573 149.033C268.343 149.072 268.109 149.091 267.871 149.091C267.459 149.091 267.076 149.015 266.72 148.863C266.369 148.712 266.064 148.493 265.804 148.207C265.544 147.917 265.34 147.561 265.193 147.141C265.045 146.721 264.972 146.242 264.972 145.704C264.972 145.215 265.039 144.762 265.173 144.346C265.312 143.93 265.511 143.572 265.771 143.273C266.036 142.97 266.358 142.734 266.74 142.565C267.125 142.396 267.567 142.311 268.066 142.311C268.529 142.311 268.937 142.387 269.288 142.539C269.643 142.686 269.957 142.896 270.23 143.169L269.925 143.585ZM275.385 143.501C275.333 143.596 275.253 143.644 275.145 143.644C275.08 143.644 275.006 143.62 274.924 143.572C274.841 143.525 274.74 143.473 274.618 143.416C274.501 143.356 274.36 143.302 274.196 143.254C274.031 143.202 273.836 143.176 273.611 143.176C273.416 143.176 273.24 143.202 273.084 143.254C272.928 143.302 272.794 143.369 272.681 143.455C272.573 143.542 272.488 143.644 272.428 143.761C272.371 143.874 272.343 143.997 272.343 144.131C272.343 144.3 272.391 144.441 272.486 144.554C272.586 144.667 272.716 144.764 272.876 144.846C273.037 144.929 273.219 145.002 273.422 145.067C273.626 145.128 273.834 145.195 274.046 145.269C274.263 145.338 274.473 145.416 274.677 145.503C274.88 145.59 275.062 145.698 275.223 145.828C275.383 145.958 275.511 146.118 275.606 146.309C275.706 146.495 275.756 146.721 275.756 146.985C275.756 147.288 275.702 147.57 275.593 147.83C275.485 148.086 275.325 148.309 275.112 148.499C274.9 148.686 274.64 148.833 274.332 148.941C274.025 149.05 273.669 149.104 273.266 149.104C272.807 149.104 272.391 149.03 272.018 148.883C271.646 148.731 271.329 148.538 271.069 148.304L271.342 147.862C271.377 147.806 271.418 147.763 271.466 147.732C271.513 147.702 271.574 147.687 271.648 147.687C271.726 147.687 271.808 147.717 271.895 147.778C271.981 147.839 272.085 147.906 272.207 147.979C272.332 148.053 272.484 148.12 272.662 148.181C272.839 148.242 273.06 148.272 273.325 148.272C273.55 148.272 273.747 148.244 273.916 148.188C274.085 148.127 274.226 148.047 274.339 147.947C274.451 147.847 274.534 147.732 274.586 147.602C274.642 147.472 274.67 147.334 274.67 147.186C274.67 147.004 274.62 146.855 274.521 146.738C274.425 146.617 274.298 146.515 274.137 146.432C273.977 146.346 273.793 146.272 273.585 146.211C273.381 146.146 273.171 146.079 272.954 146.01C272.742 145.941 272.532 145.863 272.324 145.776C272.12 145.685 271.938 145.572 271.778 145.438C271.617 145.304 271.487 145.139 271.388 144.944C271.292 144.745 271.245 144.504 271.245 144.222C271.245 143.971 271.297 143.731 271.401 143.501C271.505 143.267 271.656 143.063 271.856 142.89C272.055 142.712 272.3 142.571 272.59 142.468C272.881 142.363 273.212 142.311 273.585 142.311C274.018 142.311 274.406 142.381 274.748 142.519C275.095 142.654 275.394 142.84 275.645 143.078L275.385 143.501ZM281.664 147.414C281.876 147.7 282.108 147.901 282.359 148.018C282.615 148.135 282.895 148.194 283.198 148.194C283.818 148.194 284.292 147.975 284.621 147.537C284.951 147.1 285.115 146.448 285.115 145.581C285.115 144.775 284.968 144.183 284.673 143.806C284.383 143.425 283.967 143.234 283.425 143.234C283.048 143.234 282.719 143.321 282.437 143.494C282.16 143.668 281.902 143.913 281.664 144.229V147.414ZM281.664 143.364C281.941 143.044 282.253 142.788 282.6 142.597C282.951 142.407 283.354 142.311 283.809 142.311C284.195 142.311 284.541 142.385 284.849 142.532C285.161 142.68 285.425 142.894 285.642 143.176C285.859 143.453 286.023 143.791 286.136 144.19C286.253 144.589 286.311 145.037 286.311 145.535C286.311 146.068 286.246 146.554 286.116 146.991C285.986 147.429 285.798 147.804 285.551 148.116C285.308 148.424 285.011 148.664 284.66 148.837C284.309 149.007 283.915 149.091 283.477 149.091C283.044 149.091 282.678 149.011 282.379 148.85C282.084 148.686 281.826 148.454 281.605 148.155L281.547 148.753C281.512 148.918 281.413 149 281.248 149H280.5V139.425H281.664V143.364ZM290.55 142.311C291.031 142.311 291.465 142.392 291.85 142.552C292.236 142.712 292.565 142.94 292.838 143.234C293.111 143.529 293.319 143.887 293.462 144.307C293.61 144.723 293.683 145.189 293.683 145.704C293.683 146.224 293.61 146.692 293.462 147.108C293.319 147.524 293.111 147.88 292.838 148.174C292.565 148.469 292.236 148.697 291.85 148.857C291.465 149.013 291.031 149.091 290.55 149.091C290.065 149.091 289.627 149.013 289.237 148.857C288.852 148.697 288.522 148.469 288.249 148.174C287.976 147.88 287.766 147.524 287.619 147.108C287.476 146.692 287.404 146.224 287.404 145.704C287.404 145.189 287.476 144.723 287.619 144.307C287.766 143.887 287.976 143.529 288.249 143.234C288.522 142.94 288.852 142.712 289.237 142.552C289.627 142.392 290.065 142.311 290.55 142.311ZM290.55 148.188C291.2 148.188 291.686 147.971 292.006 147.537C292.327 147.1 292.487 146.491 292.487 145.711C292.487 144.927 292.327 144.316 292.006 143.878C291.686 143.44 291.2 143.221 290.55 143.221C290.221 143.221 289.933 143.278 289.686 143.39C289.443 143.503 289.24 143.666 289.075 143.878C288.915 144.09 288.793 144.352 288.711 144.664C288.633 144.972 288.594 145.321 288.594 145.711C288.594 146.491 288.754 147.1 289.075 147.537C289.4 147.971 289.892 148.188 290.55 148.188ZM297.058 149.104C296.538 149.104 296.137 148.959 295.856 148.668C295.578 148.378 295.44 147.96 295.44 147.414V143.384H294.647C294.577 143.384 294.519 143.364 294.471 143.325C294.423 143.282 294.4 143.217 294.4 143.13V142.669L295.479 142.532L295.745 140.498C295.758 140.433 295.786 140.381 295.83 140.342C295.877 140.299 295.938 140.277 296.012 140.277H296.597V142.545H298.501V143.384H296.597V147.336C296.597 147.613 296.664 147.819 296.798 147.953C296.932 148.088 297.106 148.155 297.318 148.155C297.439 148.155 297.543 148.14 297.63 148.109C297.721 148.075 297.799 148.038 297.864 147.999C297.929 147.96 297.983 147.925 298.027 147.895C298.074 147.86 298.115 147.843 298.15 147.843C298.211 147.843 298.265 147.88 298.313 147.953L298.651 148.506C298.451 148.692 298.211 148.84 297.929 148.948C297.647 149.052 297.357 149.104 297.058 149.104Z" fill="#1D1C1D" fill-opacity="0.7"/>
<rect x="92" y="163" width="18" height="18" rx="3" fill="#BE45ED"/>
<path d="M121.02 168.992V171.774H124.543V173.171H121.02V177H119.265V167.601H125.193V168.992H121.02ZM128.026 170.331V177H126.414V170.331H128.026ZM128.247 168.387C128.247 168.526 128.219 168.656 128.162 168.777C128.106 168.899 128.03 169.005 127.935 169.096C127.844 169.187 127.736 169.261 127.61 169.317C127.484 169.369 127.35 169.395 127.207 169.395C127.068 169.395 126.936 169.369 126.81 169.317C126.689 169.261 126.583 169.187 126.492 169.096C126.401 169.005 126.327 168.899 126.271 168.777C126.219 168.656 126.193 168.526 126.193 168.387C126.193 168.244 126.219 168.11 126.271 167.984C126.327 167.859 126.401 167.75 126.492 167.659C126.583 167.568 126.689 167.497 126.81 167.445C126.936 167.389 127.068 167.36 127.207 167.36C127.35 167.36 127.484 167.389 127.61 167.445C127.736 167.497 127.844 167.568 127.935 167.659C128.03 167.75 128.106 167.859 128.162 167.984C128.219 168.11 128.247 168.244 128.247 168.387ZM131.288 167.341V177H129.682V167.341H131.288ZM137.184 172.898C137.184 172.69 137.153 172.495 137.093 172.313C137.036 172.127 136.95 171.965 136.833 171.826C136.716 171.687 136.566 171.579 136.384 171.501C136.207 171.419 135.999 171.377 135.76 171.377C135.297 171.377 134.93 171.51 134.662 171.774C134.397 172.038 134.228 172.413 134.155 172.898H137.184ZM134.122 173.867C134.148 174.209 134.209 174.506 134.304 174.757C134.4 175.004 134.525 175.21 134.681 175.375C134.837 175.535 135.021 175.657 135.234 175.739C135.45 175.817 135.689 175.856 135.949 175.856C136.209 175.856 136.432 175.826 136.618 175.765C136.809 175.704 136.974 175.637 137.112 175.563C137.255 175.49 137.379 175.423 137.483 175.362C137.591 175.301 137.695 175.271 137.795 175.271C137.929 175.271 138.029 175.321 138.094 175.42L138.555 176.005C138.378 176.213 138.178 176.389 137.957 176.532C137.736 176.671 137.504 176.783 137.262 176.87C137.023 176.952 136.779 177.011 136.527 177.046C136.28 177.08 136.04 177.098 135.806 177.098C135.342 177.098 134.911 177.022 134.512 176.87C134.114 176.714 133.767 176.486 133.472 176.188C133.178 175.884 132.946 175.511 132.777 175.069C132.608 174.623 132.523 174.107 132.523 173.522C132.523 173.067 132.597 172.641 132.744 172.242C132.892 171.839 133.102 171.49 133.375 171.195C133.652 170.896 133.988 170.66 134.382 170.487C134.781 170.314 135.229 170.227 135.728 170.227C136.148 170.227 136.536 170.294 136.891 170.428C137.247 170.563 137.552 170.76 137.808 171.02C138.063 171.276 138.263 171.592 138.406 171.969C138.553 172.342 138.627 172.768 138.627 173.249C138.627 173.492 138.601 173.657 138.549 173.743C138.497 173.826 138.397 173.867 138.25 173.867H134.122ZM144.598 175.271C144.78 175.492 144.977 175.648 145.19 175.739C145.406 175.83 145.634 175.875 145.872 175.875C146.119 175.875 146.34 175.832 146.535 175.745C146.735 175.654 146.904 175.516 147.042 175.33C147.181 175.139 147.287 174.898 147.361 174.608C147.434 174.313 147.471 173.962 147.471 173.555C147.471 172.823 147.35 172.294 147.107 171.969C146.865 171.64 146.516 171.475 146.061 171.475C145.753 171.475 145.484 171.546 145.255 171.689C145.025 171.828 144.806 172.025 144.598 172.281V175.271ZM144.598 171.15C144.867 170.868 145.164 170.645 145.489 170.48C145.818 170.311 146.193 170.227 146.613 170.227C146.999 170.227 147.346 170.303 147.653 170.454C147.965 170.606 148.23 170.825 148.446 171.111C148.667 171.393 148.836 171.735 148.953 172.138C149.07 172.541 149.129 172.994 149.129 173.496C149.129 174.038 149.062 174.53 148.927 174.972C148.793 175.414 148.6 175.793 148.349 176.109C148.102 176.421 147.803 176.664 147.452 176.837C147.101 177.011 146.711 177.098 146.282 177.098C146.074 177.098 145.885 177.076 145.716 177.033C145.547 176.993 145.391 176.937 145.248 176.863C145.105 176.79 144.973 176.701 144.852 176.597C144.735 176.489 144.622 176.369 144.514 176.239L144.442 176.688C144.416 176.801 144.371 176.881 144.306 176.928C144.245 176.976 144.161 177 144.052 177H142.993V167.341H144.598V171.15ZM156.115 170.331V177H155.133C154.921 177 154.787 176.902 154.73 176.707L154.62 176.174C154.347 176.452 154.046 176.677 153.716 176.85C153.387 177.019 152.999 177.104 152.553 177.104C152.189 177.104 151.866 177.043 151.584 176.922C151.307 176.796 151.073 176.621 150.882 176.395C150.692 176.17 150.546 175.904 150.447 175.596C150.351 175.284 150.304 174.942 150.304 174.569V170.331H151.909V174.569C151.909 174.976 152.002 175.293 152.189 175.518C152.379 175.739 152.663 175.849 153.04 175.849C153.318 175.849 153.578 175.789 153.82 175.667C154.063 175.542 154.293 175.371 154.509 175.154V170.331H156.115ZM160.144 173.503C160.343 173.503 160.517 173.477 160.664 173.425C160.811 173.369 160.933 173.293 161.028 173.197C161.128 173.102 161.201 172.987 161.249 172.853C161.301 172.719 161.327 172.571 161.327 172.411C161.327 172.082 161.227 171.822 161.028 171.631C160.833 171.436 160.538 171.338 160.144 171.338C159.75 171.338 159.453 171.436 159.254 171.631C159.059 171.822 158.961 172.082 158.961 172.411C158.961 172.567 158.985 172.712 159.033 172.846C159.085 172.981 159.158 173.098 159.254 173.197C159.353 173.293 159.477 173.369 159.624 173.425C159.776 173.477 159.949 173.503 160.144 173.503ZM161.958 177.299C161.958 177.169 161.919 177.063 161.841 176.98C161.763 176.898 161.656 176.835 161.522 176.792C161.388 176.744 161.23 176.71 161.048 176.688C160.87 176.666 160.679 176.651 160.476 176.642C160.276 176.629 160.068 176.619 159.852 176.61C159.639 176.601 159.431 176.584 159.228 176.558C159.05 176.658 158.905 176.775 158.792 176.909C158.684 177.043 158.63 177.199 158.63 177.377C158.63 177.494 158.658 177.602 158.714 177.702C158.775 177.806 158.868 177.895 158.994 177.969C159.124 178.042 159.29 178.099 159.494 178.138C159.698 178.181 159.947 178.203 160.242 178.203C160.541 178.203 160.798 178.179 161.015 178.131C161.232 178.088 161.409 178.025 161.548 177.943C161.691 177.865 161.795 177.769 161.86 177.657C161.925 177.548 161.958 177.429 161.958 177.299ZM163.557 170.558V171.156C163.557 171.347 163.442 171.464 163.212 171.507L162.614 171.618C162.705 171.848 162.751 172.099 162.751 172.372C162.751 172.701 162.683 173 162.549 173.269C162.419 173.533 162.237 173.759 162.003 173.945C161.769 174.131 161.492 174.276 161.171 174.38C160.855 174.48 160.512 174.53 160.144 174.53C160.014 174.53 159.888 174.523 159.767 174.51C159.646 174.497 159.527 174.48 159.41 174.458C159.202 174.584 159.098 174.725 159.098 174.881C159.098 175.015 159.158 175.115 159.28 175.18C159.405 175.241 159.57 175.284 159.774 175.31C159.977 175.336 160.209 175.353 160.469 175.362C160.729 175.366 160.996 175.379 161.269 175.401C161.542 175.423 161.808 175.462 162.068 175.518C162.328 175.57 162.56 175.654 162.764 175.771C162.967 175.888 163.13 176.049 163.251 176.252C163.377 176.452 163.44 176.71 163.44 177.026C163.44 177.321 163.366 177.607 163.219 177.884C163.076 178.161 162.865 178.408 162.588 178.625C162.315 178.842 161.977 179.015 161.574 179.145C161.175 179.279 160.72 179.347 160.209 179.347C159.706 179.347 159.269 179.297 158.896 179.197C158.523 179.102 158.214 178.972 157.967 178.807C157.72 178.647 157.535 178.46 157.414 178.248C157.293 178.036 157.232 177.815 157.232 177.585C157.232 177.273 157.325 177.013 157.512 176.805C157.702 176.593 157.962 176.424 158.292 176.298C158.114 176.207 157.973 176.086 157.869 175.934C157.765 175.782 157.713 175.583 157.713 175.336C157.713 175.236 157.73 175.134 157.765 175.03C157.804 174.922 157.858 174.816 157.928 174.712C158.001 174.608 158.092 174.51 158.201 174.419C158.309 174.324 158.437 174.24 158.584 174.166C158.246 173.984 157.98 173.741 157.785 173.438C157.594 173.135 157.499 172.779 157.499 172.372C157.499 172.043 157.564 171.746 157.694 171.481C157.828 171.213 158.012 170.985 158.246 170.799C158.484 170.608 158.764 170.463 159.085 170.363C159.41 170.264 159.763 170.214 160.144 170.214C160.43 170.214 160.699 170.244 160.95 170.305C161.201 170.361 161.431 170.446 161.639 170.558H163.557Z" fill="#1D1C1D"/>
<path d="M176.682 175.999C177.042 175.999 177.352 175.958 177.612 175.875C177.872 175.793 178.084 175.678 178.249 175.531C178.418 175.379 178.541 175.202 178.619 174.998C178.697 174.79 178.736 174.562 178.736 174.315C178.736 173.834 178.565 173.455 178.223 173.178C177.88 172.896 177.367 172.755 176.682 172.755H174.667V175.999H176.682ZM174.667 168.68V171.858H176.331C176.686 171.858 176.994 171.819 177.254 171.741C177.518 171.663 177.735 171.555 177.904 171.416C178.077 171.278 178.205 171.111 178.288 170.916C178.37 170.717 178.411 170.5 178.411 170.266C178.411 169.716 178.246 169.315 177.917 169.063C177.588 168.808 177.076 168.68 176.383 168.68H174.667ZM176.383 167.685C176.955 167.685 177.447 167.742 177.859 167.854C178.275 167.967 178.615 168.127 178.879 168.335C179.148 168.543 179.345 168.799 179.471 169.102C179.596 169.401 179.659 169.739 179.659 170.116C179.659 170.346 179.622 170.567 179.549 170.779C179.479 170.987 179.373 171.182 179.23 171.364C179.087 171.546 178.905 171.711 178.684 171.858C178.467 172.001 178.212 172.118 177.917 172.209C178.602 172.339 179.115 172.584 179.458 172.944C179.804 173.299 179.978 173.767 179.978 174.348C179.978 174.742 179.904 175.102 179.757 175.427C179.614 175.752 179.401 176.031 179.12 176.265C178.842 176.499 178.5 176.681 178.093 176.811C177.685 176.937 177.222 177 176.702 177H173.413V167.685H176.383ZM186.819 170.415V177H186.13C185.965 177 185.861 176.92 185.818 176.759L185.727 176.051C185.441 176.367 185.12 176.623 184.765 176.818C184.409 177.009 184.002 177.104 183.543 177.104C183.183 177.104 182.865 177.046 182.587 176.928C182.314 176.807 182.085 176.638 181.898 176.421C181.712 176.205 181.571 175.943 181.476 175.635C181.385 175.327 181.339 174.987 181.339 174.614V170.415H182.496V174.614C182.496 175.113 182.609 175.498 182.834 175.771C183.064 176.044 183.413 176.181 183.881 176.181C184.223 176.181 184.542 176.101 184.836 175.94C185.135 175.776 185.41 175.55 185.662 175.264V170.415H186.819ZM190.948 173.782C191.182 173.782 191.388 173.75 191.565 173.685C191.743 173.62 191.892 173.529 192.014 173.412C192.135 173.295 192.226 173.156 192.287 172.996C192.347 172.831 192.378 172.651 192.378 172.456C192.378 172.053 192.254 171.733 192.007 171.494C191.765 171.256 191.411 171.137 190.948 171.137C190.48 171.137 190.122 171.256 189.875 171.494C189.633 171.733 189.511 172.053 189.511 172.456C189.511 172.651 189.542 172.831 189.602 172.996C189.667 173.156 189.76 173.295 189.882 173.412C190.003 173.529 190.153 173.62 190.33 173.685C190.508 173.75 190.714 173.782 190.948 173.782ZM193.034 177.358C193.034 177.197 192.989 177.067 192.898 176.967C192.807 176.868 192.683 176.79 192.527 176.733C192.376 176.677 192.198 176.638 191.994 176.616C191.791 176.59 191.574 176.571 191.344 176.558C191.119 176.545 190.889 176.532 190.655 176.519C190.421 176.506 190.196 176.484 189.979 176.454C189.737 176.567 189.537 176.71 189.381 176.883C189.23 177.052 189.154 177.251 189.154 177.481C189.154 177.628 189.191 177.765 189.264 177.891C189.342 178.021 189.459 178.131 189.615 178.222C189.771 178.317 189.966 178.391 190.2 178.443C190.439 178.499 190.718 178.528 191.039 178.528C191.351 178.528 191.63 178.499 191.877 178.443C192.124 178.387 192.332 178.307 192.501 178.203C192.675 178.099 192.807 177.975 192.898 177.832C192.989 177.689 193.034 177.531 193.034 177.358ZM194.211 170.675V171.104C194.211 171.247 194.12 171.338 193.938 171.377L193.19 171.475C193.338 171.761 193.411 172.077 193.411 172.424C193.411 172.745 193.348 173.037 193.223 173.301C193.101 173.561 192.932 173.785 192.716 173.971C192.499 174.157 192.239 174.3 191.936 174.4C191.632 174.5 191.303 174.549 190.948 174.549C190.64 174.549 190.35 174.513 190.077 174.439C189.938 174.526 189.832 174.619 189.758 174.718C189.685 174.814 189.648 174.911 189.648 175.011C189.648 175.167 189.711 175.286 189.836 175.368C189.966 175.446 190.135 175.503 190.343 175.537C190.551 175.572 190.787 175.594 191.052 175.602C191.32 175.611 191.593 175.626 191.871 175.648C192.152 175.665 192.425 175.698 192.69 175.745C192.958 175.793 193.197 175.871 193.405 175.979C193.613 176.088 193.78 176.237 193.905 176.428C194.035 176.619 194.1 176.866 194.1 177.169C194.1 177.451 194.029 177.724 193.886 177.988C193.747 178.252 193.546 178.486 193.281 178.69C193.017 178.898 192.692 179.063 192.306 179.184C191.925 179.31 191.494 179.373 191.013 179.373C190.532 179.373 190.111 179.325 189.752 179.23C189.392 179.134 189.093 179.006 188.855 178.846C188.616 178.686 188.437 178.499 188.315 178.287C188.198 178.079 188.14 177.86 188.14 177.631C188.14 177.306 188.242 177.03 188.445 176.805C188.649 176.58 188.928 176.4 189.284 176.265C189.089 176.179 188.933 176.064 188.816 175.921C188.703 175.774 188.647 175.576 188.647 175.33C188.647 175.234 188.664 175.137 188.699 175.037C188.733 174.933 188.785 174.831 188.855 174.731C188.928 174.627 189.017 174.53 189.121 174.439C189.225 174.348 189.347 174.268 189.485 174.198C189.16 174.016 188.907 173.776 188.725 173.477C188.543 173.174 188.452 172.823 188.452 172.424C188.452 172.103 188.512 171.813 188.634 171.553C188.759 171.289 188.933 171.065 189.154 170.883C189.375 170.697 189.637 170.554 189.94 170.454C190.248 170.355 190.584 170.305 190.948 170.305C191.234 170.305 191.5 170.337 191.747 170.402C191.994 170.463 192.22 170.554 192.423 170.675H194.211ZM199.832 171.735C200.04 171.284 200.296 170.933 200.599 170.682C200.902 170.426 201.273 170.298 201.71 170.298C201.849 170.298 201.981 170.314 202.107 170.344C202.237 170.374 202.352 170.422 202.451 170.487L202.367 171.351C202.341 171.46 202.276 171.514 202.172 171.514C202.111 171.514 202.022 171.501 201.905 171.475C201.788 171.449 201.656 171.436 201.509 171.436C201.301 171.436 201.115 171.466 200.95 171.527C200.79 171.588 200.644 171.679 200.514 171.8C200.389 171.917 200.274 172.064 200.17 172.242C200.07 172.415 199.979 172.615 199.897 172.84V177H198.733V170.415H199.396C199.522 170.415 199.609 170.439 199.656 170.487C199.704 170.535 199.737 170.617 199.754 170.734L199.832 171.735ZM207.609 172.989C207.609 172.721 207.57 172.476 207.492 172.255C207.418 172.03 207.308 171.837 207.161 171.676C207.018 171.512 206.842 171.386 206.634 171.299C206.426 171.208 206.19 171.163 205.926 171.163C205.371 171.163 204.931 171.325 204.606 171.65C204.285 171.971 204.086 172.417 204.008 172.989H207.609ZM208.545 176.077C208.402 176.25 208.231 176.402 208.032 176.532C207.832 176.658 207.618 176.762 207.388 176.844C207.163 176.926 206.929 176.987 206.686 177.026C206.443 177.069 206.203 177.091 205.965 177.091C205.51 177.091 205.089 177.015 204.704 176.863C204.322 176.707 203.991 176.482 203.709 176.188C203.432 175.888 203.215 175.52 203.059 175.082C202.903 174.645 202.825 174.142 202.825 173.574C202.825 173.115 202.894 172.686 203.033 172.287C203.176 171.889 203.38 171.544 203.644 171.254C203.908 170.959 204.231 170.73 204.613 170.565C204.994 170.396 205.423 170.311 205.9 170.311C206.294 170.311 206.658 170.379 206.992 170.513C207.33 170.643 207.62 170.834 207.863 171.085C208.11 171.332 208.302 171.64 208.441 172.008C208.58 172.372 208.649 172.788 208.649 173.256C208.649 173.438 208.63 173.559 208.591 173.62C208.552 173.681 208.478 173.711 208.37 173.711H203.969C203.982 174.127 204.038 174.489 204.138 174.796C204.242 175.104 204.385 175.362 204.567 175.57C204.749 175.774 204.966 175.927 205.217 176.031C205.468 176.131 205.75 176.181 206.062 176.181C206.352 176.181 206.602 176.148 206.81 176.083C207.022 176.014 207.204 175.94 207.356 175.862C207.507 175.784 207.633 175.713 207.733 175.648C207.837 175.579 207.925 175.544 207.999 175.544C208.094 175.544 208.168 175.581 208.22 175.654L208.545 176.077ZM211.234 175.414C211.446 175.7 211.678 175.901 211.929 176.018C212.181 176.135 212.462 176.194 212.774 176.194C213.39 176.194 213.862 175.975 214.191 175.537C214.521 175.1 214.685 174.476 214.685 173.665C214.685 173.236 214.646 172.868 214.568 172.56C214.495 172.253 214.386 172.001 214.243 171.806C214.1 171.607 213.925 171.462 213.717 171.371C213.509 171.28 213.273 171.234 213.008 171.234C212.631 171.234 212.3 171.321 212.014 171.494C211.732 171.668 211.472 171.913 211.234 172.229V175.414ZM211.175 171.436C211.453 171.094 211.773 170.818 212.137 170.61C212.501 170.402 212.917 170.298 213.385 170.298C213.767 170.298 214.111 170.372 214.419 170.519C214.726 170.662 214.989 170.877 215.205 171.163C215.422 171.445 215.589 171.796 215.706 172.216C215.823 172.636 215.881 173.119 215.881 173.665C215.881 174.151 215.816 174.604 215.686 175.024C215.556 175.44 215.368 175.802 215.121 176.109C214.878 176.413 214.579 176.653 214.224 176.831C213.873 177.004 213.476 177.091 213.034 177.091C212.631 177.091 212.285 177.024 211.994 176.889C211.708 176.751 211.455 176.56 211.234 176.317V179.23H210.07V170.415H210.766C210.93 170.415 211.032 170.496 211.071 170.656L211.175 171.436ZM220.133 170.311C220.614 170.311 221.047 170.392 221.433 170.552C221.819 170.712 222.148 170.94 222.421 171.234C222.694 171.529 222.902 171.887 223.045 172.307C223.192 172.723 223.266 173.189 223.266 173.704C223.266 174.224 223.192 174.692 223.045 175.108C222.902 175.524 222.694 175.88 222.421 176.174C222.148 176.469 221.819 176.697 221.433 176.857C221.047 177.013 220.614 177.091 220.133 177.091C219.648 177.091 219.21 177.013 218.82 176.857C218.434 176.697 218.105 176.469 217.832 176.174C217.559 175.88 217.349 175.524 217.201 175.108C217.058 174.692 216.987 174.224 216.987 173.704C216.987 173.189 217.058 172.723 217.201 172.307C217.349 171.887 217.559 171.529 217.832 171.234C218.105 170.94 218.434 170.712 218.82 170.552C219.21 170.392 219.648 170.311 220.133 170.311ZM220.133 176.188C220.783 176.188 221.268 175.971 221.589 175.537C221.91 175.1 222.07 174.491 222.07 173.711C222.07 172.927 221.91 172.316 221.589 171.878C221.268 171.44 220.783 171.221 220.133 171.221C219.804 171.221 219.515 171.278 219.268 171.39C219.026 171.503 218.822 171.666 218.657 171.878C218.497 172.09 218.376 172.352 218.293 172.664C218.215 172.972 218.176 173.321 218.176 173.711C218.176 174.491 218.337 175.1 218.657 175.537C218.982 175.971 219.474 176.188 220.133 176.188ZM225.832 171.735C226.04 171.284 226.296 170.933 226.599 170.682C226.902 170.426 227.273 170.298 227.71 170.298C227.849 170.298 227.981 170.314 228.107 170.344C228.237 170.374 228.352 170.422 228.451 170.487L228.367 171.351C228.341 171.46 228.276 171.514 228.172 171.514C228.111 171.514 228.022 171.501 227.905 171.475C227.788 171.449 227.656 171.436 227.509 171.436C227.301 171.436 227.115 171.466 226.95 171.527C226.79 171.588 226.644 171.679 226.514 171.8C226.389 171.917 226.274 172.064 226.17 172.242C226.07 172.415 225.979 172.615 225.897 172.84V177H224.733V170.415H225.396C225.522 170.415 225.609 170.439 225.656 170.487C225.704 170.535 225.737 170.617 225.754 170.734L225.832 171.735ZM231.49 177.104C230.97 177.104 230.569 176.959 230.288 176.668C230.01 176.378 229.872 175.96 229.872 175.414V171.384H229.079C229.009 171.384 228.951 171.364 228.903 171.325C228.856 171.282 228.832 171.217 228.832 171.13V170.669L229.911 170.532L230.177 168.498C230.19 168.433 230.218 168.381 230.262 168.342C230.309 168.299 230.37 168.277 230.444 168.277H231.029V170.545H232.933V171.384H231.029V175.336C231.029 175.613 231.096 175.819 231.23 175.953C231.365 176.088 231.538 176.155 231.75 176.155C231.872 176.155 231.976 176.14 232.062 176.109C232.153 176.075 232.231 176.038 232.296 175.999C232.361 175.96 232.415 175.925 232.459 175.895C232.506 175.86 232.548 175.843 232.582 175.843C232.643 175.843 232.697 175.88 232.745 175.953L233.083 176.506C232.883 176.692 232.643 176.84 232.361 176.948C232.08 177.052 231.789 177.104 231.49 177.104ZM238.497 172.989C238.497 172.721 238.458 172.476 238.38 172.255C238.306 172.03 238.196 171.837 238.048 171.676C237.905 171.512 237.73 171.386 237.522 171.299C237.314 171.208 237.078 171.163 236.813 171.163C236.259 171.163 235.819 171.325 235.494 171.65C235.173 171.971 234.974 172.417 234.896 172.989H238.497ZM239.433 176.077C239.29 176.25 239.119 176.402 238.919 176.532C238.72 176.658 238.506 176.762 238.276 176.844C238.051 176.926 237.817 176.987 237.574 177.026C237.331 177.069 237.091 177.091 236.852 177.091C236.397 177.091 235.977 177.015 235.591 176.863C235.21 176.707 234.879 176.482 234.597 176.188C234.32 175.888 234.103 175.52 233.947 175.082C233.791 174.645 233.713 174.142 233.713 173.574C233.713 173.115 233.782 172.686 233.921 172.287C234.064 171.889 234.268 171.544 234.532 171.254C234.796 170.959 235.119 170.73 235.5 170.565C235.882 170.396 236.311 170.311 236.787 170.311C237.182 170.311 237.546 170.379 237.879 170.513C238.217 170.643 238.508 170.834 238.75 171.085C238.997 171.332 239.19 171.64 239.329 172.008C239.468 172.372 239.537 172.788 239.537 173.256C239.537 173.438 239.517 173.559 239.478 173.62C239.439 173.681 239.366 173.711 239.257 173.711H234.857C234.87 174.127 234.926 174.489 235.026 174.796C235.13 175.104 235.273 175.362 235.455 175.57C235.637 175.774 235.854 175.927 236.105 176.031C236.356 176.131 236.638 176.181 236.95 176.181C237.24 176.181 237.489 176.148 237.697 176.083C237.91 176.014 238.092 175.94 238.243 175.862C238.395 175.784 238.521 175.713 238.62 175.648C238.724 175.579 238.813 175.544 238.887 175.544C238.982 175.544 239.056 175.581 239.108 175.654L239.433 176.077ZM242.057 171.735C242.265 171.284 242.52 170.933 242.824 170.682C243.127 170.426 243.497 170.298 243.935 170.298C244.074 170.298 244.206 170.314 244.332 170.344C244.462 170.374 244.576 170.422 244.676 170.487L244.592 171.351C244.566 171.46 244.501 171.514 244.397 171.514C244.336 171.514 244.247 171.501 244.13 171.475C244.013 171.449 243.881 171.436 243.734 171.436C243.526 171.436 243.339 171.466 243.175 171.527C243.014 171.588 242.869 171.679 242.739 171.8C242.613 171.917 242.499 172.064 242.395 172.242C242.295 172.415 242.204 172.615 242.122 172.84V177H240.958V170.415H241.621C241.747 170.415 241.833 170.439 241.881 170.487C241.929 170.535 241.961 170.617 241.979 170.734L242.057 171.735Z" fill="#1D1C1D" fill-opacity="0.7"/>
<rect x="80.5" y="94.5" width="247" height="99" rx="5.5" stroke="#1D1C1D" stroke-opacity="0.13"/>
</g>
</g>
<rect x="0.5" y="0.5" width="359" height="249" rx="3.5" stroke="#1D1C1D" stroke-opacity="0.13"/>
<defs>
<filter id="filter0_d" x="68" y="86" width="272" height="124" filterUnits="userSpaceOnUse" color-interpolation-filters="sRGB">
<feFlood flood-opacity="0" result="BackgroundImageFix"/>
<feColorMatrix in="SourceAlpha" type="matrix" values="0 0 0 0 0 0 0 0 0 0 0 0 0 0 0 0 0 0 127 0"/>
<feOffset dy="4"/>
<feGaussianBlur stdDeviation="6"/>
<feColorMatrix type="matrix" values="0 0 0 0 0 0 0 0 0 0 0 0 0 0 0 0 0 0 0.1 0"/>
<feBlend mode="normal" in2="BackgroundImageFix" result="effect1_dropShadow"/>
<feBlend mode="normal" in="SourceGraphic" in2="effect1_dropShadow" result="shape"/>
</filter>
<clipPath id="clip0">
<rect width="360" height="250" rx="4" fill="white"/>
</clipPath>
</defs>
</svg>
